<svg xmlns="http://www.w3.org/2000/svg" xml:space="preserve" width="1500" height="1500" data-id="lg_q0tgayck1axjBvNko6" data-version="1"><path fill="#f4f6ff" stroke="transparent" d="M0 0h1500v1500H0z"/><g data-padding="20"><g transform="translate(-578.546 -583.832)scale(1.73087)"><path fill="#564bae" d="M936.511 673.982v-.118a5.88 5.88 0 0 0-2.94-4.998L775.517 577.02a5.88 5.88 0 0 0-5.88 0l-165.463 95.492-.824.588a5.88 5.88 0 0 0-2.175 4.527v.06l.588 189.982c0 2.117 1.176 3.998 2.94 5.057l158.113 91.904a5.88 5.88 0 0 0 4.41.588l.118-.059q.705-.176 1.352-.529l165.346-95.491a5.88 5.88 0 0 0 2.94-5.116ZM772.46 588.898l146.412 85.084-60.564 34.986-93.08 53.743-138.063-80.262-8.29-4.822Zm-158.877 275.42-.47-176.4 146.352 85.024.47 176.4ZM771.754 949.4l-.588-176.459 153.703-88.73.47 176.518Z"/><rect width="679.01" height="182.32" x="110.703" y="361.078" fill="#f4f6ff" rx="0" ry="0" transform="matrix(.82 0 0 .82 398.39 399.18)"/><path fill="#564bae" stroke="transparent" d="M541.446 808.045v-79.22h23.5v31.76l26.56-31.76h27.12l-53.68 59.78v19.44Zm31.07-31.08 15.71-18.42 32.21 49.5h-28.14Zm120.57-40.69-8.7 18.08q-4.06-2.37-8.92-4.4-4.86-2.04-9.44-3.28t-7.97-1.24q-2.93 0-4.74 1.13t-1.81 3.5q0 2.6 2.2 4.24 2.21 1.63 5.94 2.76t8.13 2.32q4.41 1.19 8.82 2.94 4.4 1.75 8.08 4.41 3.67 2.65 5.93 6.89t2.26 10.45q0 8.59-4.46 14.18-4.47 5.6-11.87 8.37-7.4 2.76-16.33 2.76-6.78 0-13.67-1.58t-13.17-4.41q-6.27-2.82-11.24-6.89l8.81-17.85q4.07 3.5 9.44 6.27t10.74 4.41q5.36 1.63 9.32 1.63 3.84 0 5.99-1.41 2.14-1.41 2.14-4.24 0-2.59-2.26-4.23t-5.93-2.77-8.13-2.26q-4.47-1.13-8.82-2.77t-8.08-4.24-5.93-6.66q-2.2-4.07-2.2-10.17 0-7.69 4.06-13.39 4.07-5.71 11.42-8.76 7.34-3.05 17.29-3.05 9.04 0 17.85 2.54t15.25 6.72m8.37 71.77v-79.22h23.5v59.56h33.22v19.66Zm57.29 0 33.78-79.22h24.19l32.65 79.22h-25.08l-20.34-55.71-21.02 55.71Zm21.58-12.66v-17.17h45.77v17.17Zm74.81-66.56h38.87q9.38 0 16.16 2.49t10.51 6.95 3.73 10.57q0 5.98-3.62 10.62-3.62 4.63-9.83 6.44 7.34 1.58 11.64 7 4.29 5.43 4.29 13 0 6.78-3.84 11.75t-10.79 7.69q-6.95 2.71-16.56 2.71h-40.56Zm23.39 31.08h14.24q3.39 0 5.48-1.86 2.09-1.87 2.09-5.03 0-3.17-2.09-4.86-2.09-1.7-5.48-1.7h-14.24Zm0 30.51h14.24q4.4.11 7.11-1.92 2.72-2.04 2.72-5.54 0-3.16-2.72-5.08-2.71-1.92-7.11-1.81h-14.24Zm123.62-54.14-8.7 18.08q-4.07-2.37-8.93-4.4-4.86-2.04-9.43-3.28-4.58-1.24-7.97-1.24-2.94 0-4.75 1.13-1.8 1.13-1.8 3.5 0 2.6 2.2 4.24 2.2 1.63 5.93 2.76t8.14 2.32q4.4 1.19 8.81 2.94t8.08 4.41q3.67 2.65 5.93 6.89t2.26 10.45q0 8.59-4.46 14.18-4.46 5.6-11.86 8.37-7.41 2.76-16.33 2.76-6.78 0-13.68-1.58-6.89-1.58-13.16-4.41-6.27-2.82-11.24-6.89l8.81-17.85q4.07 3.5 9.44 6.27 5.36 2.77 10.73 4.41 5.37 1.63 9.32 1.63 3.84 0 5.99-1.41t2.15-4.24q0-2.59-2.26-4.23t-5.93-2.77q-3.68-1.13-8.14-2.26t-8.81-2.77-8.08-4.24-5.94-6.66q-2.2-4.07-2.2-10.17 0-7.69 4.07-13.39 4.07-5.71 11.41-8.76 7.35-3.05 17.29-3.05 9.04 0 17.85 2.54 8.82 2.54 15.26 6.72"/><rect width="472.55" height="127.69" x="132.886" y="306.995" fill="none" rx="0" ry="0" transform="translate(400.59 400.15)"/></g><path fill="transparent" stroke="transparent" stroke-width="1.795" d="M250 397.217h1000v705.566H250z"/></g></svg>